# xmcd
#
# Track frame offsets:
#	150
#	10172
#	31160
#	47167
#	53790
#	70428
#	86302
#	95707
#	109794
#	118133
#	126481
#	135626
#
# Disc length: 2041 seconds
#
# Revision: 0
# Processed by: cddbd v1.5.2PL0 Copyright (c) Steve Scherf et al.
# Submitted via: audiograbber 1.83.01
#
DISCID=a607f70c
DTITLE=Various Artist - gospel meets vienna
DYEAR=1998
DGENRE=Gospel
TTITLE0=Pure religion
TTITLE1=Amazing grace
TTITLE2=I'll fly away
TTITLE3=I'm gonna sing
TTITLE4=Sometimes I feel like a motherless child
TTITLE5=Oh happy day
TTITLE6=Swing low, sweet Chariot
TTITLE7=Kumb ba yah
TTITLE8=Joshua fit the battle of Jericho
TTITLE9=Oh freedom
TTITLE10=Go, tell it on the mountains
TTITLE11=Ride the Chariot
EXTD=
EXTT0=
EXTT1=
EXTT2=
EXTT3=
EXTT4=
EXTT5=
EXTT6=
EXTT7=
EXTT8=
EXTT9=
EXTT10=
EXTT11=
PLAYORDER=
